<svg width="32" height="32" viewBox="0 0 32 32" fill="none" xmlns="http://www.w3.org/2000/svg">
    <g clip-path="url(#clip0)">
        <path d="M31 16C31 24.2843 24.2843 31 16 31C8.44141 31 1 24.2843 1 16C1 7.71573 7.71573 1 16 1C24.2843 1 31 7.35742 31 16Z" fill="white"/>
        <path d="M18.4589 18.1362C17.2936 19.4254 15.3077 19.5238 14.0224 18.3565C12.7364 17.1891 12.636 15.1965 13.7988 13.9079C14.9635 12.6187 16.9513 12.5216 18.2367 13.6889C19.5233 14.8557 19.6224 16.8476 18.4589 18.1362Z" fill="url(#paint0_linear)"/>
        <path d="M16.947 5.24831C17.2111 5.5073 17.4544 5.772 17.6747 6.03671C18.9392 7.55065 19.5304 9.03857 19.5304 9.03857C20.3369 9.18838 21.0908 9.22964 21.7931 9.19536C21.8382 9.19282 21.8808 9.19282 21.9271 9.18965C21.9691 9.18584 22.0078 9.18076 22.0491 9.17758C23.605 9.0373 25.6251 8.44124 27.4725 6.59087C27.536 6.52739 27.5989 6.45947 27.6624 6.39282C27.3773 6.05194 27.082 5.71551 26.7619 5.39431C21.3969 0.0475822 13.0229 -0.418344 7.12695 3.98765C11.7528 1.74688 14.9573 3.29256 16.947 5.24831Z" fill="url(#paint1_linear)"/>
        <path d="M6.29252 20.5255C6.38524 20.1681 6.4932 19.8253 6.61132 19.5016C7.29148 17.6506 8.28472 16.395 8.28472 16.395C8.011 15.6218 7.66998 14.949 7.28894 14.3586C7.26417 14.3206 7.24321 14.2837 7.21717 14.245C7.19304 14.2107 7.16891 14.179 7.14541 14.1447C6.24616 12.8688 4.71946 11.4177 2.19254 10.7442C2.10553 10.7207 2.01599 10.7004 1.92645 10.6788C1.77403 11.0965 1.62987 11.5199 1.51111 11.9573C-0.437266 19.275 3.34645 26.7577 10.1099 29.6574C5.85559 26.7736 5.59268 23.2271 6.29252 20.5255Z" fill="url(#paint2_linear)"/>
        <path d="M24.8918 22.1271C24.5349 22.2261 24.185 22.303 23.8458 22.3633C21.9013 22.6997 20.3168 22.4686 20.3168 22.4686C19.7833 23.0913 19.3718 23.7242 19.0498 24.3488C19.0302 24.3895 19.0092 24.4263 18.9876 24.4682C18.9705 24.5069 18.9546 24.5425 18.9368 24.5805C18.2801 25.9967 17.7867 28.0439 18.4668 30.5684C18.4897 30.6554 18.5177 30.7436 18.5437 30.8318C18.9813 30.755 19.4207 30.6674 19.8583 30.5513C27.1736 28.5803 31.7651 21.5634 30.8944 14.2584C30.5229 19.3811 27.5819 21.3819 24.8918 22.1271Z" fill="url(#paint3_linear)"/>
        <path d="M7.12705 3.9877C7.12705 3.9877 3.86155 6.03168 2.15576 10.1342C2.60285 10.2117 7.15753 11.1296 8.85443 16.1887C9.26976 15.924 10.5437 14.9186 11.3998 12.1465C12.4343 8.79613 14.3998 6.32431 16.9471 5.24836C16.9471 5.24836 13.7203 0.65131 7.12705 3.9877Z" fill="url(#paint4_linear)"/>
        <path d="M17.4731 28.1092C17.4724 26.4105 17.9443 24.1628 19.8317 22.0445L19.852 22.0115C19.5446 21.6827 18.4657 20.8721 15.6923 21.5037C12.2731 22.2838 8.49958 22.1937 6.29273 20.5255C6.29273 20.5255 3.9233 25.6177 10.1095 29.6568C10.1095 29.6568 13.509 31.4589 17.9113 30.8883C17.8319 30.6686 17.4737 29.5997 17.4731 28.1092Z" fill="url(#paint5_linear)"/>
        <path d="M28.0568 6.88293C27.5697 7.47328 25.258 9.89495 21.3994 9.89813C20.7783 9.89813 20.1191 9.83528 19.4224 9.69119L19.3894 9.68294C19.2618 10.1495 19.157 11.4711 21.0406 13.5011C23.4246 16.072 25.2339 19.3842 24.8916 22.1277C24.8916 22.1277 30.4891 21.6333 30.8942 14.2578C30.8942 14.2571 30.7558 10.4104 28.0568 6.88293Z" fill="url(#paint6_linear)"/>
    </g>
    <defs>
        <linearGradient id="paint0_linear" x1="15.8716" y1="14.0425" x2="16.5652" y2="18.648" gradientUnits="userSpaceOnUse">
            <stop stop-color="#4394D0"/>
            <stop offset="1" stop-color="#15256D"/>
        </linearGradient>
        <linearGradient id="paint1_linear" x1="16.5519" y1="2.52341" x2="16.919" y2="8.63873" gradientUnits="userSpaceOnUse">
            <stop stop-color="#4394D0"/>
            <stop offset="1" stop-color="#15256D"/>
        </linearGradient>
        <linearGradient id="paint2_linear" x1="5.18107" y1="14.2018" x2="9.22689" y2="27.1287" gradientUnits="userSpaceOnUse">
            <stop stop-color="#4394D0"/>
            <stop offset="1" stop-color="#15256D"/>
        </linearGradient>
        <linearGradient id="paint3_linear" x1="24.0424" y1="17.335" x2="26.3555" y2="29.2815" gradientUnits="userSpaceOnUse">
            <stop stop-color="#4394D0"/>
            <stop offset="1" stop-color="#15256D"/>
        </linearGradient>
        <linearGradient id="paint4_linear" x1="8.94436" y1="5.26373" x2="10.2865" y2="15.1135" gradientUnits="userSpaceOnUse">
            <stop stop-color="#4394D0"/>
            <stop offset="1" stop-color="#15256D"/>
        </linearGradient>
        <linearGradient id="paint5_linear" x1="12.2747" y1="22.4699" x2="13.1439" y2="30.2055" gradientUnits="userSpaceOnUse">
            <stop stop-color="#4394D0"/>
            <stop offset="1" stop-color="#15256D"/>
        </linearGradient>
        <linearGradient id="paint6_linear" x1="24.6368" y1="9.71283" x2="26.8092" y2="20.6835" gradientUnits="userSpaceOnUse">
            <stop stop-color="#4394D0"/>
            <stop offset="1" stop-color="#15256D"/>
        </linearGradient>
        <clipPath id="clip0">
            <rect width="30" height="30" fill="white" transform="translate(1 1)"/>
        </clipPath>
    </defs>
</svg>
